<svg width="599" height="589" viewBox="0 0 599 589" fill="none" xmlns="http://www.w3.org/2000/svg">
<path d="M41.7287 393.112H115.563C117.739 393.112 119.825 393.97 121.364 395.497C122.902 397.025 123.767 399.096 123.767 401.257V401.257C123.767 403.417 122.902 405.488 121.364 407.016C119.825 408.543 117.739 409.401 115.563 409.401H32.1576C29.9818 409.401 27.8951 408.543 26.3566 407.016C24.8181 405.488 23.9538 403.417 23.9538 401.257C23.9538 399.096 24.8181 397.025 26.3566 395.497C27.8951 393.97 29.9818 393.112 32.1576 393.112H34.2086" stroke="#263238" stroke-miterlimit="10"/>
<path d="M99.1554 420.058H115.563C117.739 420.058 119.825 420.916 121.364 422.443C122.902 423.971 123.767 426.043 123.767 428.203V428.203C123.767 430.363 122.902 432.435 121.364 433.962C119.825 435.49 117.739 436.348 115.563 436.348H32.1576C29.9818 436.348 27.8951 435.49 26.3566 433.962C24.8181 432.435 23.9538 430.363 23.9538 428.203C23.9538 426.043 24.8181 423.971 26.3566 422.443C27.8951 420.916 29.9818 420.058 32.1576 420.058H91.6352" stroke="#263238" stroke-miterlimit="10"/>
<path d="M115.563 463.307H32.1576C29.9818 463.307 27.8951 462.449 26.3566 460.922C24.8181 459.394 23.9538 457.323 23.9538 455.163C23.9538 453.002 24.8181 450.931 26.3566 449.403C27.8951 447.876 29.9818 447.018 32.1576 447.018H115.563C117.739 447.018 119.825 447.876 121.364 449.403C122.902 450.931 123.767 453.002 123.767 455.163V455.163C123.767 457.323 122.902 459.394 121.364 460.922C119.825 462.449 117.739 463.307 115.563 463.307V463.307Z" stroke="#263238" stroke-miterlimit="10"/>
<path d="M91.6352 365.962H133.338V477.955H77.9622" stroke="#263238" stroke-miterlimit="10"/>
<path d="M32.8413 477.955H15.0663V365.962H82.0641" stroke="#263238" stroke-miterlimit="10"/>
<path d="M68.3911 477.955H39.6777" stroke="#263238" stroke-miterlimit="10"/>
<path d="M21.2191 382.252H126.501" stroke="#263238" stroke-miterlimit="10"/>
<path d="M145.644 28.1498H219.478C221.654 28.1498 223.74 29.008 225.279 30.5354C226.817 32.0629 227.682 34.1346 227.682 36.2948V36.2948C227.682 38.455 226.817 40.5267 225.279 42.0541C223.74 43.5816 221.654 44.4397 219.478 44.4397H136.072C133.897 44.4397 131.81 43.5816 130.271 42.0541C128.733 40.5267 127.869 38.455 127.869 36.2948V36.2948C127.869 34.1346 128.733 32.0629 130.271 30.5354C131.81 29.008 133.897 28.1498 136.072 28.1498H138.123" stroke="#263238" stroke-miterlimit="10"/>
<path d="M203.07 55.0961H219.478C221.654 55.0961 223.74 55.9542 225.279 57.4817C226.817 59.0091 227.682 61.0808 227.682 63.241C227.682 65.4012 226.817 67.4729 225.279 69.0004C223.74 70.5278 221.654 71.386 219.478 71.386H136.072C133.897 71.386 131.81 70.5278 130.271 69.0004C128.733 67.4729 127.869 65.4012 127.869 63.241V63.241C127.869 61.0808 128.733 59.0091 130.271 57.4817C131.81 55.9542 133.897 55.0961 136.072 55.0961H195.55" stroke="#263238" stroke-miterlimit="10"/>
<path d="M219.478 82.0423H136.072C131.542 82.0423 127.869 85.6889 127.869 90.1872C127.869 94.6856 131.542 98.3322 136.072 98.3322H219.478C224.009 98.3322 227.682 94.6856 227.682 90.1872C227.682 85.6889 224.009 82.0423 219.478 82.0423Z" stroke="#263238" stroke-miterlimit="10"/>
<path d="M195.55 1H237.253V112.993H181.877" stroke="#263238" stroke-miterlimit="10"/>
<path d="M136.756 112.993H118.981V1H185.979" stroke="#263238" stroke-miterlimit="10"/>
<path d="M172.306 112.993H143.593" stroke="#263238" stroke-miterlimit="10"/>
<path d="M125.134 17.2899H230.416" stroke="#263238" stroke-miterlimit="10"/>
<path d="M488.905 54.1865H445.794C445.361 54.1865 444.932 54.1019 444.533 53.9375C444.133 53.7731 443.77 53.5321 443.464 53.2283C443.158 52.9245 442.915 52.5639 442.749 52.167C442.584 51.77 442.498 51.3446 442.498 50.915V38.4804C442.498 38.0507 442.584 37.6253 442.749 37.2284C442.915 36.8315 443.158 36.4708 443.464 36.167C443.77 35.8632 444.133 35.6222 444.533 35.4578C444.932 35.2934 445.361 35.2088 445.794 35.2088H503.562C504.436 35.2088 505.274 35.5535 505.892 36.167C506.51 36.7806 506.857 37.6127 506.857 38.4804V43.3538" stroke="#263238" stroke-miterlimit="10"/>
<path d="M488.494 74.4132V47.8199C488.498 46.6905 488.952 45.6084 489.756 44.8098C490.56 44.0112 491.65 43.561 492.788 43.5574H549.996C551.133 43.561 552.223 44.0112 553.028 44.8098C553.832 45.6084 554.285 46.6905 554.289 47.8199V79.6667" stroke="#263238" stroke-miterlimit="10"/>
<path d="M554.289 105.893V139.071C554.285 140.2 553.832 141.282 553.028 142.081C552.223 142.879 551.133 143.329 549.996 143.333H492.788C491.65 143.329 490.56 142.879 489.756 142.081C488.952 141.282 488.498 140.2 488.494 139.071V80.7934" stroke="#263238" stroke-miterlimit="10"/>
<path d="M492.555 59.1006H550.187" stroke="#263238" stroke-miterlimit="10"/>
<path d="M520.093 76.3544H550.187" stroke="#263238" stroke-miterlimit="10"/>
<path d="M492.555 76.3544H515.389" stroke="#263238" stroke-miterlimit="10"/>
<path d="M492.555 93.6081H550.187" stroke="#263238" stroke-miterlimit="10"/>
<path d="M539.864 110.862H550.187" stroke="#263238" stroke-miterlimit="10"/>
<path d="M492.555 110.862H534.668" stroke="#263238" stroke-miterlimit="10"/>
<path d="M492.555 128.129H550.187" stroke="#263238" stroke-miterlimit="10"/>
<path d="M454.134 44.2633H485.541" stroke="#263238" stroke-miterlimit="10"/>
<path d="M267.47 438.153H208.047C206.842 438.153 205.686 437.679 204.833 436.834C203.979 435.989 203.498 434.843 203.494 433.646V416.501C203.494 415.302 203.974 414.153 204.828 413.305C205.682 412.457 206.84 411.981 208.047 411.981H287.665C288.873 411.981 290.031 412.457 290.885 413.305C291.739 414.153 292.218 415.302 292.218 416.501V423.221" stroke="#263238" stroke-miterlimit="10"/>
<path d="M266.91 466.05V429.397C266.91 427.838 267.533 426.343 268.644 425.241C269.754 424.139 271.26 423.519 272.83 423.519H351.682C353.252 423.519 354.758 424.139 355.869 425.241C356.979 426.343 357.603 427.838 357.603 429.397V473.312" stroke="#263238" stroke-miterlimit="10"/>
<path d="M357.575 509.435V555.169C357.575 556.728 356.952 558.223 355.841 559.325C354.731 560.428 353.225 561.047 351.655 561.047H272.803C271.232 561.047 269.727 560.428 268.616 559.325C267.506 558.223 266.882 556.728 266.882 555.169V474.833" stroke="#263238" stroke-miterlimit="10"/>
<path d="M272.502 444.927H351.956" stroke="#263238" stroke-miterlimit="10"/>
<path d="M310.458 468.71H351.956" stroke="#263238" stroke-miterlimit="10"/>
<path d="M272.502 468.71H303.991" stroke="#263238" stroke-miterlimit="10"/>
<path d="M272.502 492.507H351.956" stroke="#263238" stroke-miterlimit="10"/>
<path d="M337.722 516.29H351.956" stroke="#263238" stroke-miterlimit="10"/>
<path d="M272.502 516.29H330.557" stroke="#263238" stroke-miterlimit="10"/>
<path d="M272.502 540.074H351.956" stroke="#263238" stroke-miterlimit="10"/>
<path d="M219.546 424.483H262.835" stroke="#263238" stroke-miterlimit="10"/>
<path d="M369.416 511.797C366.008 511.8 362.732 510.486 360.283 508.132L351.819 499.797C351.271 499.229 350.966 498.473 350.967 497.687C350.969 496.901 351.277 496.146 351.827 495.58C352.377 495.015 353.127 494.683 353.918 494.654C354.709 494.625 355.481 494.902 356.071 495.426L357.739 496.973L349.221 479.584C349.018 479.146 348.903 478.672 348.884 478.19C348.865 477.707 348.943 477.226 349.112 476.774C349.364 476.115 349.805 475.544 350.381 475.132C350.956 474.72 351.642 474.484 352.351 474.455C353.06 474.427 353.762 474.605 354.37 474.969C354.978 475.333 355.465 475.866 355.771 476.502L358.943 482.706C359.507 481.994 360.315 481.511 361.212 481.349C362.415 481.25 363.612 481.593 364.576 482.312C365.162 481.571 366.015 481.084 366.955 480.955C367.953 480.854 368.956 481.093 369.799 481.634C369.991 481.148 370.339 480.739 370.789 480.469C371.238 480.199 371.765 480.083 372.288 480.14C372.858 480.189 373.407 480.378 373.884 480.691C374.362 481.004 374.753 481.431 375.022 481.932L381.038 492.914C382.055 494.9 382.542 497.112 382.453 499.338C382.363 501.564 381.701 503.73 380.528 505.63C379.356 507.529 377.712 509.098 375.755 510.187C373.798 511.277 371.592 511.85 369.348 511.851L369.416 511.797ZM353.979 495.955H353.761C353.445 495.994 353.147 496.121 352.901 496.32C352.654 496.519 352.469 496.783 352.367 497.082C352.264 497.38 352.248 497.702 352.32 498.009C352.393 498.316 352.551 498.597 352.776 498.82L361.24 507.141C363.235 509.072 365.856 510.236 368.636 510.425C371.416 510.613 374.173 509.815 376.414 508.172C378.656 506.529 380.236 504.149 380.872 501.456C381.509 498.763 381.161 495.933 379.89 493.471L373.901 482.516C373.74 482.213 373.506 481.956 373.22 481.766C372.933 481.576 372.603 481.461 372.26 481.43C371.7 481.43 371.098 481.525 370.893 482.788L370.688 484.023L369.758 483.181C369.043 482.553 368.114 482.218 367.16 482.245C366.772 482.324 366.405 482.487 366.087 482.722C365.768 482.956 365.504 483.256 365.314 483.602L364.877 484.294L364.261 483.738C363.493 483.03 362.48 482.641 361.431 482.652C360.998 482.757 360.595 482.959 360.252 483.241C359.908 483.523 359.634 483.878 359.449 484.281L358.792 485.407L354.526 477.045C354.271 476.505 353.809 476.088 353.244 475.886C352.679 475.683 352.055 475.712 351.511 475.966C350.967 476.22 350.547 476.678 350.343 477.239C350.14 477.801 350.169 478.419 350.424 478.959L361.978 502.783L355.142 496.376C354.824 496.092 354.407 495.941 353.979 495.955V495.955Z" fill="#263238"/>
<path d="M362.005 492.018C361.871 492.016 361.74 491.975 361.628 491.9C361.517 491.826 361.429 491.721 361.376 491.598L358.232 484.254C358.163 484.086 358.163 483.898 358.232 483.731C358.301 483.564 358.434 483.43 358.601 483.358C358.768 483.29 358.955 483.291 359.121 483.359C359.288 483.428 359.42 483.559 359.49 483.724L362.634 491.068C362.671 491.15 362.69 491.238 362.692 491.328C362.694 491.417 362.677 491.506 362.644 491.59C362.611 491.673 362.562 491.749 362.499 491.813C362.437 491.877 362.362 491.929 362.279 491.964C362.193 492.003 362.1 492.021 362.005 492.018V492.018Z" fill="#263238"/>
<path d="M367.488 490.403C367.355 490.404 367.224 490.365 367.112 490.293C367.001 490.22 366.913 490.117 366.859 489.996L364.125 483.548C364.089 483.466 364.069 483.377 364.067 483.288C364.066 483.199 364.082 483.11 364.115 483.026C364.148 482.943 364.197 482.867 364.26 482.803C364.323 482.739 364.397 482.687 364.48 482.652C364.649 482.587 364.837 482.589 365.005 482.657C365.172 482.725 365.308 482.855 365.383 483.018L368.117 489.466C368.153 489.548 368.171 489.636 368.172 489.725C368.173 489.815 368.155 489.903 368.121 489.985C368.086 490.067 368.036 490.142 367.972 490.205C367.908 490.267 367.832 490.316 367.748 490.349C367.667 490.387 367.578 490.406 367.488 490.403Z" fill="#263238"/>
<path d="M372.862 488.991C372.731 488.994 372.603 488.958 372.494 488.888C372.384 488.817 372.298 488.716 372.246 488.598L369.608 482.964C369.569 482.884 369.546 482.797 369.542 482.708C369.537 482.62 369.551 482.531 369.581 482.447C369.612 482.364 369.659 482.287 369.72 482.222C369.781 482.157 369.854 482.105 369.936 482.068C370.017 482.029 370.106 482.007 370.196 482.002C370.287 481.997 370.377 482.011 370.462 482.041C370.548 482.071 370.626 482.118 370.693 482.179C370.76 482.239 370.814 482.312 370.852 482.394L373.491 488.027C373.543 488.131 373.568 488.247 373.561 488.363C373.555 488.479 373.518 488.591 373.455 488.689C373.391 488.786 373.303 488.865 373.199 488.918C373.095 488.971 372.979 488.997 372.862 488.991V488.991Z" fill="#263238"/>
<path d="M349.37 14.9883L335.834 28.4268L349.37 41.8652L362.905 28.4268L349.37 14.9883Z" stroke="#263238" stroke-linecap="round" stroke-linejoin="round"/>
<path d="M584.679 162.943L571.143 176.382L584.679 189.82L598.215 176.382L584.679 162.943Z" stroke="#263238" stroke-linecap="round" stroke-linejoin="round"/>
<path d="M170.39 488.754L156.854 502.192L170.39 515.631L183.925 502.192L170.39 488.754Z" stroke="#263238" stroke-linecap="round" stroke-linejoin="round"/>
<path d="M324.213 39.6131L316.826 46.9467L324.213 54.2803L331.599 46.9467L324.213 39.6131Z" stroke="#263238" stroke-linecap="round" stroke-linejoin="round"/>
<path d="M317.381 396.64L309.995 403.973L317.381 411.307L324.768 403.973L317.381 396.64Z" stroke="#263238" stroke-linecap="round" stroke-linejoin="round"/>
<path d="M248.191 469.131C251.212 469.131 253.66 466.7 253.66 463.701C253.66 460.702 251.212 458.271 248.191 458.271C245.171 458.271 242.722 460.702 242.722 463.701C242.722 466.7 245.171 469.131 248.191 469.131Z" stroke="#263238" stroke-linecap="round" stroke-linejoin="round"/>
<path d="M423.206 409.402C426.226 409.402 428.675 406.97 428.675 403.972C428.675 400.973 426.226 398.542 423.206 398.542C420.185 398.542 417.737 400.973 417.737 403.972C417.737 406.97 420.185 409.402 423.206 409.402Z" stroke="#263238" stroke-linecap="round" stroke-linejoin="round"/>
<path d="M574.976 80.8884C577.997 80.8884 580.445 78.4573 580.445 75.4584C580.445 72.4595 577.997 70.0284 574.976 70.0284C571.956 70.0284 569.507 72.4595 569.507 75.4584C569.507 78.4573 571.956 80.8884 574.976 80.8884Z" stroke="#263238" stroke-linecap="round" stroke-linejoin="round"/>
<path d="M6.17886 97.6535C9.19942 97.6535 11.6481 95.2224 11.6481 92.2235C11.6481 89.2246 9.19942 86.7935 6.17886 86.7935C3.1583 86.7935 0.709656 89.2246 0.709656 92.2235C0.709656 95.2224 3.1583 97.6535 6.17886 97.6535Z" stroke="#263238" stroke-linecap="round" stroke-linejoin="round"/>
<path d="M172.087 61.0011L160.123 40.9238L50.0145 33.7291V53.9015V61.164V396.831L453.396 370.455V77.3453L172.087 61.0011Z" fill="#263238"/>
<path d="M451.126 364.36L53.5148 389.297V63.3496L451.126 85.1238V364.36Z" fill="#E5E5E5"/>
<path opacity="0.17" d="M452.794 366.369L444.878 366.871V82.3817L452.794 82.8296V366.369Z" fill="black"/>
<path opacity="0.17" d="M452.794 364.061L444.878 364.55V254.39L452.794 254.254V364.061Z" fill="black"/>
<path d="M451.577 96.5674L51.6689 76.5852V58.8427L451.577 81.3771V96.5674Z" fill="#0E5FEB" stroke="#263238" stroke-miterlimit="10"/>
<path d="M451.126 364.36L53.5148 389.297V63.3496L451.126 85.1238V364.36Z" stroke="#263238" stroke-linecap="round" stroke-linejoin="round"/>
<path opacity="0.2" d="M431.41 136.057L369.375 133.722H369.307L303.991 131.265L303.922 131.251L235.065 128.672L234.983 128.659L162.297 125.93H162.215L85.3319 123.039V148.003V376.862L431.259 358.034V157.885H431.41V136.057Z" fill="black"/>
<path d="M190.3 141.636L112.815 139.518V114.446L190.3 117.256V141.636Z" fill="#0E5FEB" stroke="#263238" stroke-miterlimit="10"/>
<path d="M168.245 131.061L135.785 130.057V125.373L168.245 126.432V131.061Z" fill="#7A7A7A"/>
<path d="M263.669 143.632L190.382 141.636V117.269L263.669 119.916V143.632Z" fill="#0E5FEB" stroke="#263238" stroke-miterlimit="10"/>
<path d="M333.169 145.519L263.751 143.632V119.916L333.169 122.428V145.519Z" fill="#0E5FEB" stroke="#263238" stroke-miterlimit="10"/>
<path d="M399.087 147.311V124.817L333.237 122.441V145.519L112.815 139.519V369.288L461.572 349.998V149.021L399.087 147.311Z" fill="white" stroke="#263238" stroke-linecap="round" stroke-linejoin="round"/>
<path d="M461.709 149.021L399.169 147.31V124.817L461.709 127.084V149.021Z" fill="#0E5FEB" stroke="#263238" stroke-miterlimit="10"/>
<path d="M451.851 328.834L275.182 337.047V186.542L451.851 188.483V328.834Z" fill="white" stroke="#263238" stroke-linecap="round" stroke-linejoin="round"/>
<path d="M367.324 188.13L323.448 187.669V205.642L367.324 205.805V188.13Z" fill="#0E5FEB"/>
<path d="M425.011 226.805L438.492 226.737" stroke="#263238" stroke-linecap="round" stroke-linejoin="round"/>
<path d="M344.859 227.172L416.807 226.846" stroke="#263238" stroke-linecap="round" stroke-linejoin="round"/>
<path d="M286.394 227.443L336.997 227.212" stroke="#263238" stroke-linecap="round" stroke-linejoin="round"/>
<path d="M380.929 236.443L438.492 235.968" stroke="#263238" stroke-linecap="round" stroke-linejoin="round"/>
<path d="M348.332 236.715L371.576 236.525" stroke="#263238" stroke-linecap="round" stroke-linejoin="round"/>
<path d="M286.394 237.244L337.873 236.81" stroke="#263238" stroke-linecap="round" stroke-linejoin="round"/>
<path d="M320.234 246.625L438.492 245.186" stroke="#263238" stroke-linecap="round" stroke-linejoin="round"/>
<path d="M286.394 247.032L308.64 246.76" stroke="#263238" stroke-linecap="round" stroke-linejoin="round"/>
<path d="M410.216 254.865L438.492 254.403" stroke="#263238" stroke-linecap="round" stroke-linejoin="round"/>
<path d="M354.403 255.747L400.249 255.014" stroke="#263238" stroke-linecap="round" stroke-linejoin="round"/>
<path d="M286.394 256.833L344.859 255.896" stroke="#263238" stroke-linecap="round" stroke-linejoin="round"/>
<path d="M337.872 265.616L438.492 263.634" stroke="#263238" stroke-linecap="round" stroke-linejoin="round"/>
<path d="M286.394 266.62L328.192 265.806" stroke="#263238" stroke-linecap="round" stroke-linejoin="round"/>
<path d="M425.011 272.77L438.492 272.458" stroke="#263238" stroke-linecap="round" stroke-linejoin="round"/>
<path d="M344.859 274.63L416.807 272.96" stroke="#263238" stroke-linecap="round" stroke-linejoin="round"/>
<path d="M286.394 275.987L336.997 274.82" stroke="#263238" stroke-linecap="round" stroke-linejoin="round"/>
<path d="M380.929 283.236L438.492 281.675" stroke="#263238" stroke-linecap="round" stroke-linejoin="round"/>
<path d="M348.332 284.105L371.576 283.481" stroke="#263238" stroke-linecap="round" stroke-linejoin="round"/>
<path d="M286.394 285.788L337.873 284.39" stroke="#263238" stroke-linecap="round" stroke-linejoin="round"/>
<path d="M320.234 294.544L438.492 290.906" stroke="#263238" stroke-linecap="round" stroke-linejoin="round"/>
<path d="M286.394 295.576L308.64 294.897" stroke="#263238" stroke-linecap="round" stroke-linejoin="round"/>
<path d="M410.216 301.101L438.492 300.123" stroke="#263238" stroke-linecap="round" stroke-linejoin="round"/>
<path d="M354.403 303.028L400.249 301.44" stroke="#263238" stroke-linecap="round" stroke-linejoin="round"/>
<path d="M286.394 305.377L344.859 303.354" stroke="#263238" stroke-linecap="round" stroke-linejoin="round"/>
<path d="M337.872 313.196L438.492 309.341" stroke="#263238" stroke-linecap="round" stroke-linejoin="round"/>
<path d="M286.394 315.164L328.192 313.563" stroke="#263238" stroke-linecap="round" stroke-linejoin="round"/>
<path d="M280.405 205.981L450.333 206.579" stroke="#263238" stroke-linecap="round" stroke-linejoin="round"/>
<path d="M323.448 187.669V205.642" stroke="#263238" stroke-linecap="round" stroke-linejoin="round"/>
<path d="M367.324 188.144V205.805" stroke="#263238" stroke-linecap="round" stroke-linejoin="round"/>
<path d="M409.738 188.592V205.968" stroke="#263238" stroke-linecap="round" stroke-linejoin="round"/>
<path d="M360.187 198.597L332.157 198.407V194.049L360.187 194.28V198.597Z" fill="#263238"/>
<path d="M314.669 198.298L285.628 198.108V193.669L314.669 193.913V198.298Z" fill="#CCCCCC"/>
<path d="M403.271 198.882L376.184 198.705V194.415L403.271 194.646V198.882Z" fill="#CCCCCC"/>
<path d="M443.647 199.153L417.449 198.977V194.755L443.647 194.972V199.153Z" fill="#CCCCCC"/>
<path d="M262.493 337.631L127.718 343.889V158.822L262.493 161.564V337.631Z" fill="white" stroke="#263238" stroke-linecap="round" stroke-linejoin="round"/>
<path d="M262.493 228.896L229.022 207.488L198.654 274.25L168.587 250.697L127.718 343.889L262.493 337.631V228.896Z" stroke="#263238" stroke-miterlimit="10"/>
<path d="M178.691 198.298C178.692 192.94 176.565 187.797 172.771 183.985C168.978 180.173 163.825 178 158.428 177.936C155.745 177.9 153.082 178.393 150.594 179.389C148.105 180.384 145.84 181.861 143.932 183.733C142.023 185.605 140.509 187.835 139.477 190.294C138.444 192.752 137.914 195.39 137.918 198.054C137.918 203.454 140.079 208.633 143.925 212.452C147.772 216.271 152.988 218.416 158.428 218.416C163.802 218.416 168.956 216.296 172.756 212.524C176.556 208.751 178.691 203.634 178.691 198.298Z" stroke="#263238" stroke-miterlimit="10"/>
<path d="M242.23 133.355L211.52 132.405V127.831L242.23 128.835V133.355Z" fill="#7A7A7A"/>
<path d="M312.742 135.527L283.645 134.632V130.179L312.742 131.129V135.527Z" fill="#7A7A7A"/>
<path d="M380.819 137.632L353.241 136.776V132.46L380.819 133.355V137.632Z" fill="#7A7A7A"/>
<path d="M444.235 139.586L418.051 138.772V134.564L444.235 135.419V139.586Z" fill="#7A7A7A"/>
<path d="M517.208 588.455C561.195 588.455 596.853 583.319 596.853 576.984C596.853 570.649 561.195 565.513 517.208 565.513C473.221 565.513 437.563 570.649 437.563 576.984C437.563 583.319 473.221 588.455 517.208 588.455Z" fill="#0E5FEB"/>
<path opacity="0.5" d="M517.208 588.455C561.195 588.455 596.853 583.319 596.853 576.984C596.853 570.649 561.195 565.513 517.208 565.513C473.221 565.513 437.563 570.649 437.563 576.984C437.563 583.319 473.221 588.455 517.208 588.455Z" fill="white"/>
<path d="M476.736 146.048C476.736 146.048 472.347 162.243 473.276 163.79C474.206 165.338 476.421 164.727 475.163 167.863C473.905 170.999 471.061 176.89 471.718 179.374C472.374 181.859 475.82 183.732 475.82 183.732C475.82 183.732 477.392 194.945 478.951 197.117C480.509 199.289 488.987 198.054 488.987 198.054L489.616 206.47L514.706 204.909L513.762 189.976L512.504 143.822L476.736 146.048Z" fill="white" stroke="#263238" stroke-linecap="round" stroke-linejoin="round"/>
<path d="M506.844 133.641C505.285 133.871 493.348 133.641 483.941 135.188C474.534 136.736 471.718 137.374 472.032 141.419C472.347 145.464 471.403 147.025 474.849 148.573C476.311 149.367 477.904 149.895 479.552 150.134C479.552 150.134 478.609 154.492 478.294 157.614C477.98 160.736 483.627 164.143 483.627 164.143C483.627 164.143 483.312 168.813 483.941 170.374C484.57 171.935 486.143 172.248 487.086 170.999C488.03 169.75 488.645 163.831 489.588 166.329C490.532 168.827 494.292 187.492 496.808 189.678C499.323 191.863 510.604 190.614 513.735 189.99C516.866 189.366 522.827 176.293 525.658 168.501C528.488 160.709 527.216 147.025 523.142 140.795C519.067 134.564 510.918 133.016 506.844 133.641Z" fill="#263238" stroke="#263238" stroke-linecap="round" stroke-linejoin="round"/>
<path d="M486.895 166.166C487.312 169.064 487.568 171.982 487.66 174.908C487.66 178.329 485.363 180.23 486.895 181.696C488.426 183.162 489.629 182.456 490.723 179.795C491.975 176.657 492.499 173.279 492.255 169.913C491.872 167.306 491.489 161.605 486.895 166.166Z" fill="white" stroke="#263238" stroke-linecap="round" stroke-linejoin="round"/>
<path d="M483.627 205.56L476.79 218.009C476.79 218.009 494.032 213.027 503.439 213.027C510.064 213.145 516.669 213.771 523.197 214.9L518.808 202.75C518.808 202.75 494.921 200.266 483.627 205.56Z" fill="white" stroke="#263238" stroke-linecap="round" stroke-linejoin="round"/>
<path d="M548.546 369.749C548.546 369.749 548.546 380.609 547.603 385.32C546.66 390.03 540.397 397.143 537.881 398.392C535.366 399.641 532.234 399.953 531.606 398.392C530.977 396.831 530.047 397.456 530.99 389.365C531.934 381.274 535.325 365.704 535.325 365.704L548.546 369.749Z" fill="white" stroke="#263238" stroke-linecap="round" stroke-linejoin="round"/>
<path d="M550.748 359.785L548.546 369.749C545.849 370.311 543.075 370.416 540.343 370.061C539.177 369.881 538.086 369.376 537.198 368.604C536.309 367.833 535.66 366.827 535.325 365.704L536.268 356.989L550.748 359.785Z" fill="white" stroke="#263238" stroke-linecap="round" stroke-linejoin="round"/>
<path d="M549.203 225.801C549.203 225.801 553.592 252.258 556.408 271.874C559.225 291.49 559.84 310.169 559.211 319.508C558.582 328.848 554.822 358.876 553.564 361.034C552.306 363.192 543.843 364.143 540.397 362.582C536.952 361.021 535.325 359.174 535.325 353.242C535.325 347.31 538.456 292.155 538.456 292.155L549.203 225.801Z" fill="white" stroke="#263238" stroke-linecap="round" stroke-linejoin="round"/>
<path d="M481.453 567.644C480.212 567.653 478.993 567.961 477.898 568.54C476.038 569.518 467.971 571.717 462.776 573.55C454.667 576.414 448.337 574.907 448.993 576.97C449.649 579.034 462.297 583.296 469.612 583.405C476.927 583.513 480.455 581.694 483.955 581.762C487.455 581.83 484.871 583.513 490.696 584.165C496.521 584.817 498.421 584.844 500.458 581.681C502.496 578.518 503.631 577.703 502.988 573.712V573.658C502.67 571.936 501.747 570.381 500.382 569.272C499.017 568.163 497.3 567.572 495.536 567.604L481.453 567.644Z" fill="#263238" stroke="#263238" stroke-linecap="round" stroke-linejoin="round"/>
<path d="M526.765 563.789C525.681 563.759 524.612 564.057 523.703 564.644C522.116 565.635 515.157 567.726 510.699 569.531C503.726 572.341 498.161 570.468 498.804 572.749C499.447 575.029 506.926 578.179 513.297 578.491C516.747 578.702 520.21 578.575 523.634 578.111C530.471 577.731 526.136 580.147 528.611 581.151C530.344 581.694 532.155 581.95 533.971 581.912C541.245 582.292 542.175 582.862 543.802 579.536C545.429 576.21 546.427 575.369 545.73 571.038V570.943C545.087 567.088 542.202 564.264 539.044 564.156L526.765 563.789Z" fill="#263238" stroke="#263238" stroke-linecap="round" stroke-linejoin="round"/>
<path d="M461.682 337.997C461.682 337.997 462.94 381.586 462.94 396.22C462.94 410.854 466.7 476.977 471.718 500.951C476.736 524.924 479.552 559.174 479.552 562.907C479.552 566.64 478.294 567.576 480.81 570.074C483.326 572.572 492.719 577.228 496.179 575.667C499.638 574.106 501.511 568.201 501.511 568.201C501.511 568.201 501.511 535.825 502.441 514.648C503.371 493.471 501.826 465.778 501.826 465.778C501.826 465.778 514.049 521.829 517.495 533.028C520.941 544.228 523.771 564.576 524.4 568.622C525.029 572.667 527.791 572.803 531.236 572.803C535.448 572.803 540.657 572.26 542.53 569.151C544.403 566.043 540.343 533.341 540.343 520.281C540.343 507.222 529.992 426.126 530.936 406.252C531.879 386.378 537.772 351.776 535.954 341.5C534.822 335.402 534.191 329.223 534.067 323.024C534.067 323.024 469.516 315.572 461.682 337.997Z" fill="#5E5E5E" stroke="#263238" stroke-linecap="round" stroke-linejoin="round"/>
<path d="M479.265 216.461C479.265 216.461 465.237 222.366 458.66 225.488C455.597 227.007 452.458 228.366 449.253 229.561C449.253 229.561 459.822 328.658 459.822 333.966C459.822 339.273 459.508 339.572 461.395 341.133C463.281 342.694 473.003 343.4 490.258 343.088C507.514 342.776 529.131 339.26 530.703 339.26C531.969 339.168 533.195 338.783 534.282 338.134C535.37 337.486 536.289 336.593 536.965 335.527C538.852 332.73 548.916 227.063 549.271 225.828C549.627 224.593 524.468 215.552 522.267 214.968C520.066 214.384 507.459 205.873 479.265 216.461Z" fill="white" stroke="#263238" stroke-linecap="round" stroke-linejoin="round"/>
<path d="M528.488 279.937C519.519 292.752 505.353 311.391 494.306 318.45" stroke="#263238" stroke-linecap="round" stroke-linejoin="round"/>
<path d="M537.239 266.865C537.239 266.865 535.612 269.458 532.891 273.503" stroke="#263238" stroke-linecap="round" stroke-linejoin="round"/>
<path d="M511.274 311.16C511.274 311.16 498.859 322.373 488.7 327.979" stroke="#263238" stroke-linecap="round" stroke-linejoin="round"/>
<path d="M528.789 514.336C532.134 517.824 536.079 520.692 540.438 522.806C540.438 521.897 540.438 521.042 540.438 520.254C540.438 507.182 530.088 426.099 531.031 406.225C531.195 402.6 531.537 398.487 531.961 394.13C531.623 393.249 531.207 392.399 530.717 391.591C525.598 383.695 520.99 375.484 516.921 367.007L533.205 382.469C533.342 381.301 533.479 380.12 533.602 378.953C529.267 371.215 523.566 360.6 523.183 357.355L504.041 367.618C504.041 367.618 501.539 441.533 501.853 465.819C501.853 465.819 503.699 474.303 506.16 485.312C512.08 498.643 522.65 508.023 528.789 514.336Z" fill="#263238" stroke="#263238" stroke-linecap="round" stroke-linejoin="round"/>
<path d="M465.455 342.884C466.517 346.752 467.889 350.529 469.557 354.179C470.763 356.694 472.74 358.766 475.204 360.097" stroke="#263238" stroke-linecap="round" stroke-linejoin="round"/>
<path d="M485.678 558.21C486.089 562.987 486.034 567.792 485.514 572.558" stroke="#263238" stroke-linecap="round" stroke-linejoin="round"/>
<path d="M484.283 540.372C484.57 544.445 484.83 548.164 485.063 551.137" stroke="#263238" stroke-linecap="round" stroke-linejoin="round"/>
<path d="M476.161 378.451C476.941 409.673 478.814 478.199 480.496 493.471C481.713 504.548 482.834 519.847 483.75 532.838" stroke="#263238" stroke-linecap="round" stroke-linejoin="round"/>
<path d="M475.054 343.36C474.739 344.296 475.792 362.894 475.792 362.894C475.792 362.894 475.861 366.057 475.997 371.392" stroke="#263238" stroke-linecap="round" stroke-linejoin="round"/>
<path d="M409.533 253.48C409.533 253.48 410.75 251.376 412.555 247.778C414.359 244.181 414.072 239.634 414.072 237.285C414.072 234.937 416.807 233.986 416.807 231.285C416.807 228.584 412.883 228.896 410.777 230.688C408.671 232.48 408.042 237.882 408.042 237.882C408.042 237.882 404.693 232.262 402.915 228.298C401.302 224.728 399.087 218.579 396.079 217.683C393.071 216.787 393.207 220.493 393.522 221.389C394.009 223.13 394.631 224.832 395.381 226.479C396.079 227.837 397.487 231.909 397.487 231.909C397.487 231.909 393.262 228.611 391.758 228.611C391.378 228.628 391.008 228.741 390.685 228.941C390.362 229.141 390.096 229.42 389.913 229.752C389.731 230.083 389.637 230.456 389.642 230.834C389.646 231.212 389.749 231.582 389.939 231.909C389.939 231.909 386.316 233.403 387.205 235.805C388.094 238.208 388.422 239.104 388.422 239.104C388.422 239.104 387.506 240.299 388.422 243.299C389.338 246.299 393.248 251.444 394.752 253.792C395.621 255.189 396.749 256.409 398.075 257.39L409.533 253.48Z" fill="white" stroke="#263238" stroke-linecap="round" stroke-linejoin="round"/>
<path d="M389.953 231.896C390.919 233.369 392.042 234.734 393.303 235.968" stroke="#263238" stroke-linecap="round" stroke-linejoin="round"/>
<path d="M388.449 239.091C389.016 240.077 389.705 240.989 390.5 241.806" stroke="#263238" stroke-linecap="round" stroke-linejoin="round"/>
<path d="M400.208 269.078L394.875 257.552C395.928 256.051 397.279 254.779 398.845 253.815C400.411 252.85 402.159 252.214 403.982 251.946C410.558 250.697 411.502 251.946 411.502 251.946L414.947 263.783C414.947 263.783 403.667 264.72 400.208 269.078Z" fill="white" stroke="#263238" stroke-linecap="round" stroke-linejoin="round"/>
<path d="M432.203 290.241C432.203 290.241 422.481 273.747 419.965 267.829C417.45 261.91 414.018 260.349 408.371 260.973C402.724 261.598 397.706 267.516 397.706 271.833C397.706 276.15 417.778 319.155 418.721 321.653C419.665 324.151 426.556 324.762 431.259 321.965C435.963 319.169 436.592 303.952 432.203 290.241Z" fill="white" stroke="#263238" stroke-linecap="round" stroke-linejoin="round"/>
<path d="M449.185 229.534C449.185 229.534 436.25 267.394 434.062 273.299C431.875 279.204 421.757 306.124 419.022 311.418C416.287 316.712 418.721 325.739 427.226 326.988C435.73 328.237 436.947 325.739 441.336 319.508C445.725 313.277 456.554 297.707 456.554 297.707C456.554 297.707 451.728 236.688 449.185 229.534Z" fill="white" stroke="#263238" stroke-linecap="round" stroke-linejoin="round"/>
</svg>
