<svg width="1111" height="176" viewBox="0 0 1111 176" fill="none" xmlns="http://www.w3.org/2000/svg">
<rect x="1" y="1" width="189" height="170" stroke="black" stroke-width="2"/>
<path d="M17.5 82V1.5H189.5V138.5L176.5 152H74L17.5 82Z" fill="#73D2F0" stroke="black" stroke-width="2"/>
<circle cx="115" cy="65" r="45" fill="#FFFAFA" stroke="black" stroke-width="2"/>
<circle cx="115" cy="65" r="13" fill="#0D0D0D" stroke="black" stroke-width="2"/>
<path d="M277.789 65.7207H291.148C299.82 65.7207 305.621 64.7539 308.551 62.8203C311.48 60.8867 312.945 57.459 312.945 52.5371C312.945 47.5566 311.539 44.0996 308.727 42.166C305.914 40.2324 300.055 39.2656 291.148 39.2656H277.789V65.7207ZM236.217 137V7.53711H289.479C301.256 7.53711 310.572 8.24023 317.428 9.64648C324.342 10.9941 330.113 13.1914 334.742 16.2383C340.719 20.2812 345.172 25.291 348.102 31.2676C351.031 37.2441 352.496 44.334 352.496 52.5371C352.496 67.0098 348.219 78.1133 339.664 85.8477C331.109 93.5234 318.775 97.3613 302.662 97.3613H277.789V137H236.217ZM391.527 78.4648H425.364C424.954 72.5469 423.314 68.123 420.443 65.1934C417.571 62.2051 413.441 60.7109 408.05 60.7109C403.07 60.7109 399.114 62.293 396.185 65.457C393.314 68.5625 391.761 72.8984 391.527 78.4648ZM423.343 108.699H459.73C457.093 119.129 451.292 127.039 442.327 132.43C433.421 137.762 421.644 140.428 406.995 140.428C390.589 140.428 377.552 135.887 367.884 126.805C358.275 117.664 353.47 105.389 353.47 89.9785C353.47 73.9238 358.392 61.2676 368.236 52.0098C378.079 42.6934 391.468 38.0352 408.402 38.0352C425.394 38.0352 438.695 43.1035 448.304 53.2402C457.972 63.3184 462.806 77.3223 462.806 95.252V97.5371L391.527 97.625C391.702 103.719 393.314 108.436 396.361 111.775C399.407 115.057 403.655 116.697 409.105 116.697C412.796 116.697 415.872 116.023 418.333 114.676C420.794 113.27 422.464 111.277 423.343 108.699ZM471.25 137V41.4629H505.791V55.4375C510.245 49.8711 515.196 45.7402 520.645 43.0449C526.153 40.291 532.364 38.9141 539.278 38.9141C545.079 38.9141 550.264 39.8809 554.834 41.8145C559.405 43.748 563.272 46.6191 566.436 50.4277C569.307 53.8848 571.329 58.1035 572.5 63.084C573.731 68.0059 574.346 76.0918 574.346 87.3418V137H536.377V87.5176C536.377 80.252 535.411 75.2715 533.477 72.5762C531.543 69.8223 528.204 68.4453 523.457 68.4453C518.653 68.4453 515.079 70.0273 512.735 73.1914C510.391 76.3555 509.219 81.1895 509.219 87.6934V137H471.25Z" fill="#334D7E"/>
<path d="M620.408 88.5723C620.408 96.248 621.668 101.961 624.187 105.711C626.707 109.402 630.545 111.248 635.701 111.248C641.15 111.248 645.164 109.432 647.742 105.799C650.379 102.166 651.697 96.4824 651.697 88.748C651.697 81.834 650.291 76.4727 647.478 72.6641C644.724 68.8555 640.798 66.9512 635.701 66.9512C630.545 66.9512 626.707 68.7676 624.187 72.4004C621.668 75.9746 620.408 81.3652 620.408 88.5723ZM588.855 147.283H626.472C626.941 149.568 628.025 151.209 629.724 152.205C631.482 153.201 634.119 153.699 637.634 153.699C643.201 153.699 646.951 152.469 648.884 150.008C650.877 147.547 651.873 142.127 651.873 133.748V128.562C648.65 131.668 644.812 134.012 640.359 135.594C635.964 137.117 630.925 137.879 625.242 137.879C612.351 137.879 602.009 133.484 594.216 124.695C586.482 115.848 582.615 104.1 582.615 89.4512C582.615 74.041 586.306 61.7656 593.689 52.625C601.13 43.4844 611.033 38.9141 623.396 38.9141C630.31 38.9141 636.316 40.1445 641.414 42.6055C646.57 45.0078 651.023 48.7578 654.773 53.8555V41.4629H688.435V129.617C688.435 146.258 684.363 158.064 676.218 165.037C668.074 172.01 654.334 175.496 634.998 175.496C621.58 175.496 610.857 173.035 602.83 168.113C594.802 163.191 590.144 156.248 588.855 147.283ZM701.889 137V41.4629H736.958V58.8652C739.477 51.9512 743.081 46.9121 747.768 43.748C752.514 40.5254 758.813 38.9141 766.665 38.9141H770.093V76.7949C768.686 76.6777 767.339 76.5898 766.05 76.5312C764.761 76.4141 763.53 76.3555 762.358 76.3555C754.682 76.3555 749.028 78.084 745.395 81.541C741.821 84.998 740.034 90.418 740.034 97.8008V137H701.889ZM841.291 94.373C837.658 95.7793 832.824 97.2734 826.789 98.8555C817.297 101.375 812.551 104.744 812.551 108.963C812.551 111.658 813.488 113.768 815.363 115.291C817.238 116.814 819.904 117.576 823.361 117.576C829.689 117.576 834.289 116.111 837.16 113.182C840.09 110.252 841.555 105.594 841.555 99.207C841.555 97.8594 841.525 96.8633 841.467 96.2188C841.467 95.5156 841.408 94.9004 841.291 94.373ZM844.807 137L842.434 127.859C837.57 132.137 832.326 135.301 826.701 137.352C821.076 139.402 814.748 140.428 807.717 140.428C796.936 140.428 788.586 137.791 782.668 132.518C776.809 127.186 773.879 119.686 773.879 110.018C773.879 100.584 776.779 93.6113 782.58 89.0996C788.381 84.5879 799.338 81.3066 815.451 79.2559C817.502 78.9629 820.256 78.6406 823.713 78.2891C835.725 77 841.73 73.8945 841.73 68.9727C841.73 66.2188 840.617 64.2266 838.391 62.9961C836.223 61.707 832.766 61.0625 828.02 61.0625C824.094 61.0625 821.076 61.8535 818.967 63.4355C816.857 64.959 815.627 67.332 815.275 70.5547H778.186C778.361 59.832 782.756 51.7461 791.369 46.2969C799.982 40.7891 812.639 38.0352 829.338 38.0352C837.189 38.0352 844.426 38.7676 851.047 40.2324C857.727 41.6973 862.912 43.6602 866.604 46.1211C871.115 49.168 874.279 52.625 876.096 56.4922C877.912 60.3008 878.82 65.7793 878.82 72.9277V126.189C878.82 127.947 879.172 129.529 879.875 130.936C880.578 132.283 881.604 133.396 882.951 134.275V137H844.807ZM897.284 137V62.9961H885.419V41.4629H897.284V35.4863C897.284 24.8223 899.921 16.9707 905.195 11.9316C910.527 6.89258 918.788 4.37305 929.98 4.37305H951.249V28.2793C950.78 28.2793 950.107 28.25 949.228 28.1914C948.349 28.1328 947.704 28.1035 947.294 28.1035C942.665 28.1035 939.443 28.8945 937.626 30.4766C935.81 32 934.902 34.6953 934.902 38.5625C934.902 38.8555 934.931 39.3242 934.989 39.9688C935.048 40.5547 935.077 41.0527 935.077 41.4629H951.249V62.9961H935.077V137H897.284ZM956.442 31.707V4.37305H994.762V31.707H956.442ZM956.442 137V41.4629H994.762V137H956.442ZM1072.9 99.7344H1110.87C1110.05 112.332 1105.01 122.264 1095.76 129.529C1086.56 136.795 1074.31 140.428 1059.02 140.428C1042.08 140.428 1028.69 135.828 1018.85 126.629C1009.01 117.43 1004.09 104.92 1004.09 89.0996C1004.09 73.2793 1008.95 60.8281 1018.68 51.7461C1028.4 42.6055 1041.73 38.0352 1058.67 38.0352C1074.02 38.0352 1086.38 41.6387 1095.76 48.8457C1105.13 55.9941 1110.05 65.6328 1110.52 77.7617H1072.55C1072.14 73.25 1070.79 69.9102 1068.51 67.7422C1066.22 65.5742 1062.88 64.4902 1058.49 64.4902C1052.98 64.4902 1048.94 66.4824 1046.36 70.4668C1043.78 74.3926 1042.49 80.6035 1042.49 89.0996C1042.49 97.7129 1043.72 104.012 1046.19 107.996C1048.7 111.98 1052.69 113.973 1058.14 113.973C1062.53 113.973 1065.96 112.771 1068.42 110.369C1070.94 107.967 1072.44 104.422 1072.9 99.7344Z" fill="#0BA8D5"/>
</svg>
