<svg width="980" height="980" viewBox="0 0 980 980" fill="none" xmlns="http://www.w3.org/2000/svg">
<rect width="980" height="980" fill="#E5E5E5"/>
<path d="M980 0H0V980H980V0Z" fill="white"/>
<path d="M789.179 666.679C789.179 832.637 654.645 746.549 488.701 746.549C322.753 746.549 188.224 832.642 188.224 666.679V395.053C188.222 355.593 195.994 316.519 211.093 280.063C226.193 243.606 248.326 210.481 276.228 182.578C304.131 154.676 337.255 132.542 373.712 117.442C410.168 102.341 449.242 94.5694 488.701 94.57V94.57C528.161 94.57 567.234 102.342 603.689 117.443C640.145 132.543 673.269 154.676 701.171 182.578C729.073 210.48 751.206 243.604 766.307 280.06C781.407 316.516 789.179 355.589 789.179 395.048V666.674V666.679Z" fill="#6608B0"/>
<path d="M490 704.11C659.281 704.11 796.51 566.881 796.51 397.601C796.51 228.32 659.281 91.091 490 91.091C320.719 91.091 183.49 228.32 183.49 397.601C183.49 566.881 320.719 704.11 490 704.11Z" fill="#6608B0"/>
<path d="M490 205.8C390.422 205.8 232.946 262.429 232.946 527.701C232.946 680.855 292.648 753.071 314.404 780.825C334.425 806.354 437.198 888.909 490.005 888.909V205.8H490Z" fill="#F2D7BC"/>
<path d="M183.407 590.94C178.997 548.555 199.21 510.938 228.487 506.925C257.765 502.912 285.106 534.007 289.502 576.392C293.897 618.777 273.689 656.37 244.392 660.393C215.095 664.416 187.792 633.32 183.407 590.94Z" fill="#F2D7BC"/>
<path d="M489.191 205.8C588.769 205.8 746.241 262.41 746.241 527.681C746.241 680.835 686.554 753.052 664.793 780.805C644.771 806.334 542.004 888.889 489.191 888.889V205.8V205.8Z" fill="#EAC0A7"/>
<path d="M796.593 590.94C800.979 548.555 780.781 510.938 751.513 506.925C722.245 502.912 694.903 534.007 690.508 576.392C686.113 618.777 706.311 656.37 735.588 660.393C764.866 664.416 792.198 633.32 796.593 590.94Z" fill="#EAC0A7"/>
<path d="M558.234 744.247C557.558 757.406 550.239 769.401 538.492 778.299C526.151 787.646 509.013 793.486 490 793.486C470.987 793.486 453.849 787.646 441.508 778.299C429.761 769.401 422.442 757.406 421.766 744.247H558.234Z" fill="white" stroke="black" stroke-width="4"/>
<path d="M475.511 129.502C293.554 129.502 238.238 288.909 238.238 362.321C172.25 454.039 244.182 536.099 295.117 564.926V519.797C295.117 460.482 351.511 405.558 436.237 414.702C512.153 422.895 559.962 380 600.343 307.054C650.186 209.367 587.956 129.502 475.511 129.502Z" fill="#2892F4"/>
<path d="M592.552 277.066C592.552 277.066 635.064 449.663 751.493 506.934C772.22 351.766 784.465 384.434 751.493 302.751C718.521 221.068 592.552 160.343 592.552 160.343V277.066V277.066Z" fill="#0B41CC"/>
<path d="M435.6 487.55C435.6 489.673 434.062 491.799 431.388 493.827C428.735 495.839 425.077 497.667 421.096 499.211C413.126 502.301 404.003 504.2 399.35 504.2C394.693 504.2 384.954 502.299 376.368 499.206C372.078 497.661 368.113 495.831 365.23 493.816C362.315 491.778 360.65 489.653 360.65 487.55C360.65 485.447 362.315 483.322 365.23 481.284C368.113 479.269 372.078 477.438 376.368 475.894C384.954 472.801 394.693 470.9 399.35 470.9C404.003 470.9 413.126 472.799 421.096 475.889C425.077 477.433 428.735 479.261 431.388 481.273C434.062 483.301 435.6 485.427 435.6 487.55ZM626.7 487.55C626.7 489.673 625.162 491.799 622.488 493.827C619.835 495.839 616.177 497.667 612.196 499.211C604.226 502.301 595.103 504.2 590.45 504.2C585.793 504.2 576.054 502.299 567.468 499.206C563.178 497.661 559.213 495.831 556.33 493.816C553.415 491.778 551.75 489.653 551.75 487.55C551.75 485.447 553.415 483.322 556.33 481.284C559.213 479.269 563.178 477.438 567.468 475.894C576.054 472.801 585.793 470.9 590.45 470.9C595.103 470.9 604.226 472.799 612.196 475.889C616.177 477.433 619.835 479.261 622.488 481.273C625.162 483.301 626.7 485.427 626.7 487.55Z" fill="#FF9C9C" stroke="black"/>
<ellipse cx="399.35" cy="487.55" rx="17.15" ry="17.15" fill="#03040D"/>
<circle cx="590.45" cy="487.55" r="17.15" fill="#03040D"/>
</svg>
